<svg width="75" height="75" viewBox="0 0 75 75" fill="none" xmlns="http://www.w3.org/2000/svg">
<path d="M8.33333 75C6.04167 75 4.08056 74.1847 2.45 72.5542C0.819445 70.9236 0.00277778 68.9611 0 66.6667V8.33333C0 6.04167 0.816667 4.08056 2.45 2.45C4.08333 0.819445 6.04444 0.00277778 8.33333 0H66.6667C68.9583 0 70.9208 0.816667 72.5542 2.45C74.1875 4.08333 75.0028 6.04444 75 8.33333V66.6667C75 68.9583 74.1847 70.9208 72.5542 72.5542C70.9236 74.1875 68.9611 75.0028 66.6667 75H8.33333ZM12.5 58.3333H62.5L46.875 37.5L34.375 54.1667L25 41.6667L12.5 58.3333Z" fill="white"/>
</svg>
